<svg width="359" height="338" viewBox="0 0 359 338" fill="none" xmlns="http://www.w3.org/2000/svg">
<g clip-path="url(#clip0_330_191)">
<mask id="mask0_330_191" style="mask-type:luminance" maskUnits="userSpaceOnUse" x="-182" y="-233" width="757" height="758">
<path d="M574.54 -232.813H-181.25V524.531H574.54V-232.813Z" fill="white"/>
</mask>
<g mask="url(#mask0_330_191)">
<path d="M241.47 241.609C241.444 241.091 241.137 240.767 240.76 240.62C242.794 235.527 240.932 229.391 234.77 225.885C228.171 222.129 219.249 222.625 211.952 222.51C205.747 222.413 199.538 222.582 193.345 222.984C187.466 223.368 181.692 224.2 175.791 224.206C172.123 224.209 168.403 224.532 164.826 225.373C157.686 227.051 151.353 231.392 151.232 239.389C151.195 241.815 151.729 243.755 152.674 245.322C152.629 245.408 152.578 245.483 152.555 245.594C151.172 252.11 151.967 258.571 152.581 265.137L154.537 286.091C155.203 293.216 155.632 300.365 156.461 307.475C157.143 313.324 155.669 323.135 162.045 326.374C164.621 327.684 167.709 327.506 170.51 327.774C173.644 328.076 176.768 328.449 179.908 328.684C187.13 329.226 194.581 329.742 201.823 329.4C208.869 329.07 215.894 328.29 222.842 327.067C226.329 326.456 229.798 325.732 233.241 324.898C238.199 323.697 240.301 321.924 240.154 316.546C239.916 307.81 241.002 298.936 241.37 290.181C242.047 274.001 242.222 257.79 241.47 241.609Z" fill="black"/>
<path d="M235.753 320.194C233.42 321.737 231.044 323.498 227.587 324.087C224.782 324.564 221.963 324.952 219.151 325.388C212.799 326.376 206.389 326.989 199.967 327.224C193.278 327.468 186.58 327.245 179.917 326.649C176.508 326.344 173.108 325.942 169.721 325.456C166.578 325.007 162.265 324.839 160.541 321.568C158.247 317.214 159.065 310.909 158.547 306.154C157.819 299.48 157.416 292.776 156.791 286.091L155.039 267.343C154.424 260.746 153.411 254.09 154.506 247.513C160.585 252.851 173.642 251.406 180.741 251.502C190.052 251.627 199.364 251.416 208.657 250.877C216.525 250.42 225.848 250.763 233.285 247.747C235.892 246.689 237.89 245.112 239.276 243.259C238.359 244.486 239.551 250.647 239.597 252.3C239.688 255.65 239.749 258.999 239.781 262.349C239.843 269.043 239.782 275.739 239.602 282.433C239.342 291.995 239.804 317.513 235.753 320.194Z" fill="#FEFEFE"/>
<path d="M237.829 315.514C216.412 320.298 191.3 323.61 176.408 303.641C165.171 288.571 164.808 269.535 166.194 251.387C161.659 250.999 157.331 249.991 154.508 247.513C153.412 254.088 154.425 260.744 155.041 267.343L156.793 286.091C157.417 292.776 157.819 299.481 158.546 306.154C159.066 310.909 158.246 317.214 160.542 321.569C162.266 324.839 166.579 325.007 169.72 325.456C173.109 325.942 176.51 326.344 179.919 326.649C186.581 327.245 193.279 327.467 199.966 327.224C206.392 326.988 212.803 326.376 219.154 325.388C221.966 324.951 224.782 324.564 227.586 324.087C231.044 323.498 233.421 321.737 235.752 320.194C236.644 319.603 237.32 317.904 237.829 315.514Z" fill="#D5DEDD"/>
<path d="M236.93 242.824C231.299 248.496 220.495 247.819 213.119 248.332C197.892 249.392 182.592 249.577 167.343 248.834C163.562 248.649 158.663 248.792 155.778 245.841C152.61 242.601 152.987 237.131 155.337 233.629C158.595 228.776 163.984 227.154 169.537 226.733C187.621 225.363 206.089 223.471 224.197 225.31C231.968 226.101 246.226 233.457 236.93 242.824Z" fill="#DD8224"/>
<path d="M271.857 111.593C271.837 106.492 270.74 101.34 269.491 96.437C268.038 90.7363 265.879 85.2248 263.11 80.0391C263.077 79.9802 263.033 79.9515 262.995 79.9012C262.771 79.6025 264.271 74.8019 264.331 74.0213C264.477 72.1508 263.824 70.1995 264.786 68.5695C266.379 65.869 265.493 61.927 263.448 59.6829C262.263 58.3836 260.364 57.9132 258.921 58.8137C258.758 58.466 258.582 58.1356 258.383 57.8513C257.334 56.3361 255.236 55.7079 253.713 56.6444C253.304 54.595 252.467 52.552 250.546 51.567C248.598 50.5663 246.387 51.2867 245.464 53.1266C244.855 52.4431 244.091 51.9482 243.135 51.7972C240.175 51.3268 238.58 54.1294 239.33 56.6167C239.118 58.2127 239.056 60.073 239.57 61.6119C235.957 61.1123 232.346 60.6126 228.731 60.1116C228.556 59.8675 228.277 59.7054 227.866 59.7505C225.969 59.9573 224.076 60.1626 222.183 60.3678C221.057 60.4916 220.668 61.8017 221.616 62.4746C222.999 63.4546 224.382 64.4345 225.766 65.4159C226.126 65.6713 226.479 65.6665 226.765 65.5152C229.461 66.0218 232.157 66.5284 234.852 67.035C234.844 67.048 234.831 67.0566 234.824 67.0696C233.177 69.3245 234.423 72.0872 235.634 74.2174C237.401 77.3215 239.577 80.1577 241.994 82.7793C243.754 91.0672 244.693 102.673 236.667 106.308C236.334 106.3 236 106.427 235.755 106.671C234.402 107.143 232.831 107.419 230.998 107.443C222.58 107.553 213.842 105.921 205.445 105.002C205.05 104.698 204.482 104.647 204.078 104.929C203.471 105.084 203.262 105.769 203.46 106.345C200.71 117.583 198.202 131.699 207.975 140.354C211.994 143.912 217.335 144.838 222.537 144.763C229.635 144.661 237.07 143.777 244.008 142.251C250.055 140.92 255.982 138.527 260.86 134.642C265.063 131.292 268.381 126.58 270.246 121.471C271.418 118.255 271.87 114.935 271.857 111.593Z" fill="black"/>
<path d="M226.058 62.8663L225.251 62.2953C225.588 62.2574 225.924 62.2211 226.261 62.1847C226.194 62.4119 226.125 62.6391 226.058 62.8663Z" fill="#FEFEFE"/>
<path d="M259.673 61.1025C259.711 61.068 259.754 61.055 259.793 61.0118C261.515 59.0515 263.016 63.4757 263.221 64.542C263.453 65.7536 263.405 67.138 262.493 68.078C261.424 69.182 259.518 68.7908 259.711 67.0755C259.748 66.752 259.65 66.5135 259.495 66.3355C259.59 66.1154 259.678 65.891 259.739 65.658C260.07 64.3911 260.015 62.692 259.673 61.1025Z" fill="#FEFEFE"/>
<path d="M254.031 59.1955C254.219 59.1506 254.405 59.0627 254.57 58.8655C256.601 56.4419 257.689 63.0963 257.67 64.0738C257.638 65.7975 256.255 67.5345 254.639 65.9727C253.702 65.0683 253.909 63.1532 253.955 61.9787C253.964 61.7515 253.902 61.5719 253.816 61.4153C253.989 60.6934 254.052 59.9358 254.031 59.1955Z" fill="#FEFEFE"/>
<path d="M247.348 54.4807C248.204 51.248 250.86 54.8928 251.183 55.8009C251.422 56.4762 251.546 57.2092 251.654 57.9135C251.801 58.8721 251.979 60.216 251.613 61.1624C250.544 63.9311 248.338 62.0351 247.525 60.3169C247.57 59.946 247.587 59.5751 247.564 59.2143C247.49 58.0241 247.234 56.5366 246.7 55.2018C246.991 55.0965 247.244 54.8733 247.348 54.4807Z" fill="#FEFEFE"/>
<path d="M246.488 63.0397C247.037 63.7908 247.717 64.4138 248.522 64.7462C248.401 65.0267 248.385 65.3559 248.574 65.7021C249.112 66.6904 247.63 66.816 246.014 66.6961C245.98 65.6956 245.946 64.6951 245.911 63.6946C246.119 63.4959 246.317 63.28 246.488 63.0397Z" fill="#FEFEFE"/>
<path d="M241.453 55.9883C241.446 55.9711 241.449 55.9567 241.44 55.9395C241.695 55.3124 241.948 54.6852 242.199 54.0581C242.659 54.1797 243.119 54.3027 243.577 54.4242C244.133 54.826 244.409 55.6436 244.63 56.2614C244.991 57.2773 245.323 58.5189 245.321 59.6272C245.141 59.8618 245.06 60.1738 245.196 60.5546C245.201 60.5675 245.207 60.5819 245.212 60.5948C244.954 61.4577 244.305 62.1932 243.543 62.2819C243.421 62.193 243.272 62.1242 243.077 62.0971C242.915 62.0744 242.752 62.053 242.59 62.0302C242.457 61.9442 242.323 61.848 242.191 61.7116C240.95 60.4368 241.336 58.2627 241.577 56.6954C241.619 56.4222 241.555 56.1923 241.453 55.9883Z" fill="#FEFEFE"/>
<path d="M228.223 63.4989C228.336 63.1164 228.45 62.7324 228.563 62.3499C232.933 62.9548 237.304 63.5598 241.673 64.1662C241.939 64.3009 242.22 64.4227 242.54 64.5129C242.945 64.6273 243.326 64.6685 243.689 64.6565C243.709 65.2415 243.73 65.8266 243.749 66.4116C243.112 66.3061 242.671 66.2133 242.663 66.2119L237.47 65.2357C234.387 64.6577 231.305 64.0783 228.223 63.4989Z" fill="#FEFEFE"/>
<path d="M228.82 142.083C223.249 142.6 217.078 143.256 211.969 140.426C200.131 133.868 202.908 118.178 205.558 107.265C212.513 107.985 219.466 108.756 226.426 109.404C229.403 109.68 232.455 109.893 235.297 109.231C234.7 120.086 236.661 130.582 241.053 140.551C237.011 141.293 232.901 141.705 228.82 142.083Z" fill="#DD8224"/>
<path d="M269.341 115.988C267.127 127.831 258.828 135.582 247.558 139.006C246.153 139.432 244.731 139.789 243.3 140.103C238.749 130.05 236.876 119.439 237.602 108.46C238.323 108.137 239.022 107.739 239.697 107.242C247.649 101.376 245.932 90.4374 244.149 82.0905C244.128 81.9943 244.08 81.9296 244.043 81.8506C244.036 81.8233 244.021 81.7975 244.01 81.7716C243.979 81.717 243.951 81.6581 243.912 81.6136C243.869 81.5447 243.847 81.4699 243.785 81.4039C241.537 78.9876 239.488 76.3812 237.832 73.517C237.381 72.7327 236.779 71.8552 236.534 70.9858C236.195 69.7831 236.364 67.9672 237.961 67.7264C238.1 67.7061 238.231 67.7002 238.361 67.7043C238.572 67.7486 238.782 67.79 238.995 67.8385C240.607 68.4329 241.517 70.9488 242.02 72.3037C242.211 72.8224 242.649 73.0504 243.088 73.0642C243.246 73.1013 243.417 73.1083 243.606 73.0678C244.878 72.7857 246.068 73.1305 247.096 73.9068C248.254 74.7822 249.374 72.8198 248.23 71.9545C246.952 70.9888 245.393 70.6114 243.835 70.7631C243.561 70.0662 243.251 69.3709 242.884 68.7216C244.243 69.0044 245.605 69.2268 246.922 69.2523C249.655 69.306 251.884 67.5477 250.671 64.8799C250.742 64.8625 250.808 64.8581 250.88 64.835C251.216 64.7339 251.517 64.5941 251.789 64.4313C252.024 66.294 252.741 68.0612 254.68 68.773C255.735 69.1611 256.753 68.9872 257.613 68.4915C258.109 70.0104 259.634 71.1252 261.321 71.0281C261.594 71.0119 261.85 70.9569 262.1 70.8847C262.365 73.8255 261.917 76.7573 260.767 79.4974C260.541 80.0325 260.731 80.5296 261.068 80.854C261.089 80.9618 261.105 81.0711 261.166 81.1831C266.815 91.7615 269.597 103.226 269.467 115.145C269.421 115.427 269.394 115.706 269.341 115.988Z" fill="#FEFEFE"/>
<path d="M228.14 199.9C226.254 193.901 223.271 188.02 220.932 182.166C214.791 166.815 212.85 149.831 215.16 133.458C216.118 126.665 217.718 119.367 214.647 113.237C212.44 108.831 208.073 105.808 203.405 104.257C198.735 102.707 193.742 102.47 188.825 102.435C181.302 102.382 173.449 102.799 166.23 105.336C160.047 107.51 154.227 111.404 150.632 116.985C146.733 123.037 143.816 129.428 141.902 136.422C138.581 148.559 138.091 161.341 139.069 173.834C139.923 184.741 141.869 195.658 146.083 205.749C150.293 215.844 156.882 225.112 165.819 231.4C176.31 238.783 189.844 241.678 202.428 239.227C208.887 237.969 215.149 235.316 220.15 231.03C225.148 226.746 228.808 220.76 229.73 214.234C230.421 209.352 229.615 204.591 228.14 199.9Z" fill="black"/>
<path d="M226.581 218.091C218.319 242.335 183.679 241.845 166.434 229.081C147.019 214.708 141.601 189.307 141.133 166.477C140.856 152.858 141.413 138.409 147.516 125.955C150.305 120.265 154.418 115.171 159.556 111.45C164.963 107.536 171.62 106.239 178.123 105.548C185.108 104.803 192.476 103.777 199.433 105.201C203.168 105.966 206.659 107.622 209.397 110.312C210.905 111.795 212.099 113.569 212.964 115.498C215.731 121.667 213.628 128.517 212.757 134.88C212.028 140.21 211.764 145.604 211.972 150.979C212.401 161.973 214.776 172.837 218.958 183.009C223.419 193.867 230.71 205.978 226.581 218.091Z" fill="#DD8224"/>
<path d="M317.684 176.405C312.146 177.114 306.879 179.418 302.748 183.198C295.733 189.617 292.611 200.295 292.045 209.55C291.873 212.338 291.975 215.847 294.202 217.878C297.898 221.252 303.349 217.528 306.757 215.723C314.067 211.849 321.194 207.603 327.89 202.733C333.391 198.735 340.852 193.735 344.444 187.843C351.868 175.662 323.691 175.638 317.684 176.405Z" fill="black"/>
<path d="M338.173 191.329C330.855 198.261 322.544 204.074 313.875 209.18C310.048 211.433 306.148 213.678 302.139 215.589C299.748 216.73 296.777 217.211 295.457 214.388C294.028 211.339 294.425 207.82 295.099 204.634C295.79 201.37 296.455 197.811 297.536 194.663C297.99 193.334 298.555 192.043 299.239 190.817C299.584 190.193 299.96 189.583 300.363 188.994C300.67 188.549 301.586 187.753 301.692 187.251C305.241 183.03 310.205 180.19 315.58 179.042C316.316 178.885 317.099 178.846 317.821 178.659C323.458 177.935 329.3 178.446 334.855 179.539C336.788 179.919 339.665 180.164 341.235 181.327C346.241 185.041 340.608 189.023 338.173 191.329Z" fill="black"/>
<path d="M314.915 300.528C305.805 296.913 295.654 296.212 286.128 298.48C282.199 299.417 278.403 301.098 275.967 304.46C273.388 308.021 270.757 311.871 270.633 316.435C270.606 317.451 270.708 318.471 270.935 319.464C272.101 324.563 276.359 327.051 281.29 327.497C290.276 328.306 300.19 325.919 309.134 324.95C315.214 324.29 324.211 324.96 329.501 321.297C340.397 313.748 320.654 302.806 314.915 300.528Z" fill="black"/>
<path d="M326.749 320.137C322.434 322.405 316.04 321.942 311.276 322.458C305.592 323.075 299.906 323.69 294.221 324.306C289.366 324.833 283.274 326.351 278.484 324.72C275.434 323.679 273.009 321.503 272.841 318.127C272.686 315.013 274.101 311.921 275.613 309.285C277.075 306.743 278.393 303.744 281.135 302.336C284.344 300.688 288.53 300.083 292.075 299.68C296.621 299.163 301.241 299.34 305.735 300.198C310.425 301.092 314.991 302.696 319.175 305.009C322.773 306.996 335.837 315.356 326.749 320.137Z" fill="black"/>
<path d="M314.177 298.582C314.177 298.582 314.178 298.576 314.177 298.573C310.343 281.388 306.13 264.291 301.485 247.305C297.093 231.243 293.035 214.603 286.642 199.201C281.924 187.837 274.695 176.804 263.37 171.183C253.351 166.211 241.247 166.907 232.598 174.171C232.132 173.972 231.555 174.034 231.218 174.595C220.959 191.585 213.749 210.052 209.791 229.513C209.693 229.989 209.885 230.363 210.18 230.61C210.048 231.479 211.23 232.36 212.109 231.595C219.712 224.992 231.059 223.402 240.069 228.165C248.908 232.837 252.964 242.627 256.21 251.537C263.273 270.922 268.518 290.943 272.197 311.237C272.236 311.45 272.325 311.605 272.434 311.73C272.533 312.183 272.869 312.558 273.474 312.518C287.81 311.567 301.416 307.294 313.7 299.824C314.204 299.519 314.304 299.022 314.177 298.582Z" fill="black"/>
<path d="M265.342 272.226C262.08 261.095 258.861 249.209 253.26 238.981C244.975 223.852 226.328 218.154 212.292 228.58C216.229 210.085 223.121 192.517 232.836 176.291C233.161 176.369 233.52 176.325 233.84 176.048C245.225 166.15 261.376 170.006 271.483 179.712C281.347 189.186 285.886 202.46 289.822 215.223C298.271 242.607 305.547 270.351 311.808 298.318C300.291 305.165 287.642 309.183 274.287 310.192C271.95 297.39 269.004 284.715 265.342 272.226Z" fill="#FEFEFE"/>
<path d="M265.342 272.226C262.08 261.095 258.861 249.209 253.26 238.981C244.975 223.852 226.328 218.154 212.292 228.58C216.229 210.085 223.121 192.517 232.836 176.291C233.161 176.369 233.52 176.325 233.84 176.048C245.225 166.15 261.376 170.006 271.483 179.712C281.347 189.186 285.886 202.46 289.822 215.223C298.271 242.607 305.547 270.351 311.808 298.318C300.291 305.165 287.642 309.183 274.287 310.192C271.95 297.39 269.004 284.715 265.342 272.226Z" fill="#FEFEFE"/>
<path d="M290.132 216.243C290.028 215.904 289.927 215.561 289.823 215.221C285.886 202.459 281.345 189.187 271.483 179.712C261.376 170.006 245.224 166.149 233.84 176.047C233.52 176.324 233.16 176.37 232.834 176.291C223.119 192.517 216.226 210.085 212.291 228.579C225.099 219.064 241.743 222.983 250.853 235.238C250.421 227.754 253.478 220.121 259.999 215.689C269.517 209.218 280.892 210.789 290.132 216.243Z" fill="#D5DEDD"/>
<path d="M310.417 291.875C298.462 298.046 285.706 301.827 272.322 303.139C270.892 303.28 270.878 305.54 272.322 305.398C286.105 304.046 299.245 300.178 311.554 293.824C312.844 293.16 311.705 291.209 310.417 291.875Z" fill="black"/>
<path d="M312.507 170.774C301.984 147.516 274.623 139.251 251.125 144.712C230.488 149.507 213.923 162.317 199.204 177.024C199.076 177.02 198.941 177.029 198.792 177.08C179.574 183.832 162.514 195.173 148.881 210.338C148.855 210.367 148.849 210.397 148.825 210.429C148.818 210.44 148.813 210.455 148.805 210.466C148.445 210.984 148.584 211.58 148.955 211.95C158.221 238.938 189.375 249.202 213.501 234.482C227.031 226.227 236.974 213.271 250.647 205.229C264.023 197.361 286.294 195.531 293.229 213.071C293.299 213.246 293.399 213.383 293.516 213.495C293.772 214.225 294.676 214.708 295.303 213.958C305.298 201.99 311.144 187.587 312.322 172.045C312.597 171.72 312.726 171.26 312.507 170.774Z" fill="black"/>
<path d="M294.763 211.045C290.23 201.526 279.886 196.74 269.498 196.923C255.561 197.167 243.739 206.45 233.752 215.247C220.953 226.525 207.818 239.404 189.577 239.335C171.924 239.269 156.755 227.81 151.092 211.264C163.467 197.706 178.595 187.288 195.641 180.65C190.572 185.911 185.708 191.341 180.956 196.681C179.992 197.764 181.58 199.367 182.549 198.279C200.51 178.101 219.686 156.73 246.262 148.384C269.883 140.965 298.852 147.27 310.201 171.179C310.164 171.28 310.122 171.375 310.113 171.497C309.116 186.044 303.814 199.683 294.763 211.045Z" fill="#FEFEFE"/>
<path d="M304.252 162.935C302.999 174.371 299.713 185.289 294.551 195.412C284.331 189.576 272.25 187.602 260.765 190.521C248.13 193.736 238.154 202.67 228.665 211.137C217.336 221.248 204.261 232.567 188.019 231.624C172.346 230.714 164.156 216.781 157.541 204.351C156.858 203.067 154.911 204.207 155.594 205.491C161.001 215.653 167.227 226.893 178.315 231.669C190.089 236.737 203.454 232.649 213.715 226.038C226.044 218.094 235.454 206.392 247.922 198.639C262.066 189.846 279.007 189.117 293.501 197.419C292.144 199.932 290.669 202.393 289.079 204.798C288.276 206.014 290.228 207.147 291.026 205.938C299.606 192.962 304.811 178.404 306.505 162.935C306.665 161.492 304.408 161.503 304.252 162.935Z" fill="black"/>
<path d="M172.721 91.1797C172.406 87.3376 169.914 83.607 165.666 83.8587C161.393 84.1112 158.371 88.0271 158.88 92.217C159.37 96.2611 163.091 99.6255 167.256 99.1361C171.324 98.6589 173.023 94.8678 172.721 91.1797Z" fill="black"/>
<path d="M166.159 96.5442C163.629 96.3593 161.684 94.2043 161.443 91.7326C161.159 88.7872 163.574 86.3869 166.527 86.6878C171.676 87.212 171.709 96.9503 166.159 96.5442Z" fill="#FEFEFE"/>
<path d="M223.889 87.7515C223.574 83.9095 221.083 80.1804 216.834 80.4319C212.562 80.6846 209.539 84.5989 210.048 88.7888C210.538 92.8329 214.258 96.1958 218.424 95.7079C222.492 95.2307 224.191 91.4397 223.889 87.7515Z" fill="black"/>
<path d="M217.327 93.1174C214.795 92.9323 212.851 90.7773 212.611 88.3058C212.325 85.3603 214.742 82.9601 217.695 83.2609C222.845 83.7852 222.875 93.5234 217.327 93.1174Z" fill="#FEFEFE"/>
<path d="M194.884 103.662C190.159 97.3367 182.064 96.1013 174.922 98.4797C174.284 98.6919 174.167 99.2447 174.351 99.7301C174.297 99.8092 174.235 99.8776 174.197 99.9812C171.573 107.198 170.36 116.276 176.428 122.208C181.413 127.081 189.64 126.8 194.318 121.691C198.958 116.62 198.925 109.07 194.884 103.662Z" fill="black"/>
<path d="M192.614 120.13C187.753 125.275 179.353 124.192 175.95 117.849C173.046 112.436 174.324 106.233 176.314 100.759C176.364 100.623 176.37 100.497 176.372 100.373C181.969 98.6688 188.262 99.5537 192.321 104.087C196.366 108.602 196.918 115.576 192.614 120.13Z" fill="#D5DEDD"/>
<path d="M216.144 63.7096C212.037 52.1242 199.423 45.916 187.651 49.178C180.578 51.1385 174.746 55.9784 171.219 62.3863C168.795 66.7935 167.704 71.802 167.121 76.7592C166.564 81.4849 166.048 86.553 166.659 91.2952C167.737 99.6587 172.399 107.238 179.803 111.41C190.42 117.389 204.418 114.479 211.095 104.073C214.53 98.7191 215.819 92.2589 216.835 86.0716C218.049 78.6677 218.701 70.9171 216.144 63.7096Z" fill="black"/>
<path d="M215.199 81.7041C213.51 95.5942 208.666 112.243 191.701 112.332C184.064 112.372 177.28 108.441 173.248 101.987C167.717 93.13 167.775 79.913 170.561 70.1164C171.555 66.6226 173.125 63.2778 175.275 60.3476C179.719 54.2901 186.55 50.5111 194.118 50.5317C211.369 50.5802 216.973 67.1043 215.199 81.7041Z" fill="#FEFEFE"/>
<path d="M215.199 81.7041C213.51 95.5942 208.666 112.243 191.701 112.332C184.064 112.372 177.28 108.441 173.248 101.987C167.717 93.13 167.775 79.913 170.561 70.1164C171.555 66.6226 173.125 63.2778 175.275 60.3476C179.719 54.2901 186.55 50.5111 194.118 50.5317C211.369 50.5802 216.973 67.1043 215.199 81.7041Z" fill="#FEFEFE"/>
<path d="M194.121 50.53C186.554 50.5094 179.725 54.2895 175.282 60.3477C173.132 63.2775 171.561 66.6218 170.567 70.1152C169.129 75.1707 168.427 81.134 168.837 86.9418C174.435 84.0557 179.106 80.0727 182.887 74.9976C184.945 79.0769 188.031 83.497 193.093 83.1012C196.133 82.8628 198.173 80.7328 198.53 78.1409C203.148 82.0932 208.45 85.7564 214.68 85.3656C214.879 84.132 215.052 82.9049 215.199 81.7001C216.973 67.1021 211.368 50.5784 194.121 50.53Z" fill="#D5DEDD"/>
<path d="M224.824 57.4389C221.028 49.1643 210.2 46.2591 201.776 44.3402C203.034 43.4919 203.991 42.3113 203.798 40.6239C203.47 37.7805 200.873 37.6174 198.564 37.9672C189.824 39.2909 182.031 44.447 176.551 51.2393C171.225 51.5165 166.644 58.0448 164.689 62.1978C161.218 69.5756 161.928 77.7647 165.79 84.8162C166.011 85.2182 166.367 85.3992 166.728 85.4164C166.871 86.2113 167.788 86.85 168.525 86.1342C174.576 80.2548 179.096 73.1057 181.31 64.9122C181.351 64.7627 181.393 64.5976 181.435 64.441C182.892 69.6872 185.923 74.2354 190.441 77.8015C191.12 78.3383 192.182 77.7967 192.231 76.9629C192.41 73.9713 192.151 71.1393 191.465 68.3525C198.171 74.1989 205.923 78.3907 214.598 80.7776C214.97 81.1835 215.562 81.3309 216.051 80.8164C221.816 74.7747 228.923 66.3747 224.824 57.4389Z" fill="black"/>
<path d="M176.598 71.2135C174.418 75.9082 171.391 80.0218 167.766 83.6789C165.27 79.0532 164.09 73.956 164.973 68.7176C165.495 65.627 166.739 62.6961 168.496 60.1151C169.67 58.3928 177.832 48.2182 180.338 57.5393C180.398 57.7563 180.439 57.9846 180.468 58.2236C180.481 58.5031 180.501 58.7788 180.52 59.0558C180.53 62.8441 177.897 68.417 176.598 71.2135Z" fill="black"/>
<path d="M215.078 78.5361C205.437 75.8293 196.974 70.9266 189.892 63.7841C188.985 62.8708 187.483 63.781 187.993 65.016C189.28 68.1326 189.92 71.1593 189.994 74.4013C185.507 70.1442 182.961 64.5592 182.726 58.2266C182.719 58.0271 182.664 57.8552 182.585 57.7044C182.617 55.0077 181.852 52.5747 179.2 51.6111C182.117 48.2175 185.548 45.4089 189.569 43.3588C191.664 42.2904 193.854 41.4534 196.123 40.8335C196.757 40.66 198.358 40.006 198.989 40.2114C200.35 40.6551 199.914 42.8942 198.298 43.5108C197.569 43.7904 197.518 44.4942 197.827 45.0232C197.817 45.4333 198.037 45.8136 198.577 45.9364C205.572 47.5084 213.121 49.118 218.829 53.7523C228.389 61.5122 221.511 71.656 215.078 78.5361Z" fill="black"/>
<path d="M188.332 93.0426C187.075 93.7063 185.707 93.8922 184.334 93.4851C182.948 93.0727 182.166 95.1903 183.559 95.6047C185.499 96.1802 187.507 96.0317 189.306 95.0801C190.585 94.4039 189.619 92.3627 188.332 93.0426Z" fill="black"/>
<path d="M207.228 90.8008C206.298 91.5149 205.152 91.5607 204.106 91.0814C202.784 90.4768 202.017 92.6 203.33 93.201C205.112 94.0185 207.15 93.7038 208.685 92.524C209.839 91.6398 208.377 89.9191 207.228 90.8008Z" fill="black"/>
<path d="M198.712 90.3397C198.081 89.0309 196.043 90.0021 196.678 91.3155C197.752 93.544 197.926 95.9354 197.156 98.2872C196.704 99.6673 198.82 100.448 199.276 99.0666C200.232 96.1463 200.049 93.1108 198.712 90.3397Z" fill="black"/>
<path d="M178.159 166.449C177.598 149.828 174.866 133.339 171.135 117.159C170.489 114.362 169.921 111.536 169.209 108.754C169.026 108.035 168.822 107.311 168.439 106.675C167.337 104.853 164.633 104.464 162.826 103.694C160.443 102.68 157.945 101.867 155.374 101.52C150.301 100.838 145.493 102.427 142.608 106.834C142.106 107.598 141.677 108.409 141.305 109.243C138.532 115.462 138.437 123.164 138.432 129.833C138.424 137.886 139.374 145.957 141.249 153.787C143.965 165.129 148.811 182.542 162.173 185.228C174.193 187.643 178.493 176.397 178.159 166.449Z" fill="black"/>
<path d="M174.352 177.269C169.417 187.874 156.949 182.538 151.948 175.15C143.649 162.892 140.834 145.361 140.684 130.872C140.611 123.837 140.418 115.076 144.035 108.784C149.29 99.6371 159.557 104.013 166.643 108.124C166.65 108.169 166.637 108.205 166.65 108.251C170.787 124.454 173.723 140.925 175.253 157.585C175.829 163.845 177.104 171.357 174.352 177.269Z" fill="#DD8224"/>
<path d="M184.528 105.022C184.697 103.82 184.072 102.515 182.657 101.975C182.366 101.864 182.073 101.804 181.781 101.769C182.089 100.321 181.36 98.9472 179.194 98.6093C178.191 98.4512 177.174 98.5015 176.17 98.6827C176.684 97.5355 176.689 96.2963 175.526 95.211C173.074 92.9267 169.632 95.589 167.942 97.4349C163.162 102.649 162.854 109.86 166.093 115.522C161.547 132.669 148.469 147.242 148.836 165.542C148.72 165.711 148.64 165.916 148.661 166.189C149.211 173.141 152.172 180.123 158.652 183.458C164.885 186.667 172.307 185.397 176.803 179.965C182.155 173.5 182.449 164.002 183.166 156.022C184.225 144.249 184.308 132.432 183.577 120.636C185.291 119.753 185.796 117.799 185.917 115.82C186.013 114.214 185.909 113.316 187.017 111.924C187.404 111.438 187.906 111.059 188.275 110.554C188.908 109.689 189.443 108.661 189.297 107.552C188.979 105.129 186.562 104.561 184.528 105.022Z" fill="black"/>
<path d="M186.383 109.264C186.095 109.645 185.775 110 185.425 110.328C184.764 111.115 184.18 111.866 183.907 112.884C183.452 114.591 184.386 118.279 182.009 118.818C181.23 118.995 181.078 119.728 181.321 120.305C181.321 120.331 181.309 120.349 181.311 120.377C182.25 135.291 182.034 150.432 179.875 165.24C178.784 172.711 175.957 182.151 167.006 182.858C157.961 183.573 152.396 176.019 151.129 167.948C151.167 167.826 151.194 167.694 151.183 167.538C149.834 149.24 162.687 134.688 167.759 117.917C168.338 118.61 168.963 119.274 169.666 119.882C170.758 120.828 172.36 119.238 171.26 118.285C167.807 115.291 165.805 111.373 166.219 106.7C166.398 104.673 166.963 102.854 168.025 101.086C168.554 100.13 169.218 99.2706 170.017 98.5058C174.354 95.4826 174.941 98.4885 172.277 100.135C171.267 100.708 170.327 101.388 169.521 102.138C168.458 103.132 170.055 104.726 171.115 103.736C172.494 102.45 174.072 101.535 175.911 101.089C176.612 100.919 177.746 100.609 178.484 100.804C179.334 100.659 179.639 101.03 179.401 101.921C179.226 102.11 179.025 102.272 178.829 102.437C178.74 102.485 178.648 102.528 178.56 102.577C176.624 103.655 174.816 105.058 172.974 106.292C171.775 107.097 172.904 109.053 174.113 108.242C175.459 107.34 176.803 106.435 178.15 105.535C178.657 105.196 179.166 104.827 179.698 104.528C180.153 104.23 180.649 104.049 181.187 103.984C181.872 103.872 183.725 104.075 181.473 106.307C179.565 107.43 177.856 109.01 176.493 110.61C175.556 111.71 177.145 113.314 178.087 112.207C179.312 110.767 180.666 109.502 182.289 108.514C182.899 108.143 184.045 107.292 184.787 107.276C186.825 107.752 187.359 108.416 186.383 109.264Z" fill="#FEFEFE"/>
<path d="M286.329 42.397C297.545 30.6543 293.188 12.6073 277.797 7.30704C269.667 4.50653 260.412 6.76876 254.535 13.0824C252.038 15.7656 250.25 19.0951 249.507 22.6943C249.12 24.5617 249.018 26.4856 249.194 28.3848C249.507 31.7475 250.824 35.4101 253.788 37.3712C256.522 39.1805 260.215 39.2098 262.746 37.0079C266.07 34.1171 264.962 29.4263 265.723 25.6062C266.446 21.9753 270.665 21.3721 273.737 22.2421C275.876 22.8487 277.249 24.7111 277.678 26.8408C278.171 29.2753 277.745 32.1111 276.687 34.3454C272.341 43.513 260.178 45.0648 254.664 53.3329C251.824 57.5909 250.749 63.8616 254.544 67.917C258.796 72.4629 264.299 69.7649 265.514 64.3548C266.262 61.0268 266.152 58.3124 268.453 55.45C270.393 53.0372 273.202 51.3769 275.818 49.8484C279.587 47.6435 283.271 45.5994 286.329 42.397Z" fill="black"/>
<path d="M264.613 57.4127C263.903 59.0994 263.799 60.7685 263.496 62.5527C263.504 67.6111 257.921 71.2727 254.45 62.7996C254.199 61.4915 254.273 60.2162 254.671 58.9717C257.516 45.6656 286.041 42.5687 279.548 25.3946C277.241 19.2934 268.551 16.3396 264.289 22.2966C263.108 23.9456 262.922 26.0201 262.895 28.0233C262.873 29.6003 263.327 31.237 262.922 32.7957C262.491 34.4479 260.714 35.5092 259.121 35.8907C257.464 36.2867 255.283 36.0593 254.023 34.803C252.461 33.2449 251.627 30.2176 251.445 28.0812C251.245 25.7532 251.514 23.3925 252.229 21.1663C253.638 16.7742 256.745 13.0204 260.745 10.7456C263.674 9.07818 267.025 8.2372 270.391 8.2692C281.411 8.37163 292.159 17.8126 290.54 29.4112C288.945 40.8405 279.03 44.4226 270.841 50.2852C268.278 52.1218 265.86 54.4507 264.613 57.4127Z" fill="#DD8224"/>
<path d="M259.689 82.7765C260.803 80.7195 260.287 77.8964 258.982 76.0138C257.29 73.5711 254.918 73.5576 252.358 74.5597C250.69 75.2126 249.433 76.4951 248.88 78.2099C247.924 81.1672 249.427 84.3306 252.296 85.5127C255.062 86.6515 258.277 85.3841 259.689 82.7765Z" fill="black"/>
<path d="M253.081 83.3951C251.278 82.6251 250.38 80.6026 251.068 78.7614C251.745 76.9429 253.897 75.8434 255.742 76.5201C257.549 77.1852 258.613 79.5238 257.892 81.3299C257.146 83.2044 254.942 84.1896 253.081 83.3951Z" fill="#DD8224"/>
<path d="M106.308 326.792L106.271 189.573C106.269 186.087 109.114 183.235 112.593 183.234C116.072 183.232 118.918 186.083 118.919 189.569L118.957 326.788C118.958 330.274 116.113 333.126 112.634 333.127C109.156 333.129 106.308 330.278 106.308 326.792Z" fill="#FEFEFE"/>
<path d="M118.919 189.57C118.919 188.435 118.612 187.369 118.085 186.444C114.471 186.296 110.825 186.298 107.239 186.224C106.629 187.198 106.269 188.344 106.271 189.575L106.276 211.407C110.516 210.954 114.732 210.344 118.925 209.601L118.919 189.57Z" fill="#D5DEDD"/>
<path d="M106.308 329.132L106.271 191.914C106.269 188.428 109.114 185.574 112.593 185.574C116.072 185.573 118.918 188.423 118.919 191.909L118.957 329.128C118.958 332.614 116.113 335.466 112.634 335.468C109.156 335.469 106.308 332.618 106.308 329.132Z" stroke="black" stroke-width="2.05" stroke-miterlimit="10"/>
<path d="M190.952 195.91H34.2735C30.7946 195.91 27.9484 193.059 27.9484 189.573C27.9484 186.086 30.7946 183.235 34.2735 183.235H190.952C194.432 183.235 197.277 186.086 197.277 189.573C197.277 193.059 194.432 195.91 190.952 195.91Z" fill="black"/>
<path d="M190.952 195.91H34.2735C30.7946 195.91 27.9484 193.059 27.9484 189.573C27.9484 186.086 30.7946 183.235 34.2735 183.235H190.952C194.432 183.235 197.277 186.086 197.277 189.573C197.277 193.059 194.432 195.91 190.952 195.91Z" stroke="black" stroke-width="2.05" stroke-miterlimit="10"/>
<path d="M112.615 327.971C78.1038 327.971 50.1276 332.473 50.1276 338.028H175.101C175.101 332.473 147.125 327.971 112.615 327.971Z" fill="black"/>
<path d="M112.615 327.971C78.1038 327.971 50.1276 332.473 50.1276 338.028H175.101C175.101 332.473 147.125 327.971 112.615 327.971Z" stroke="black" stroke-width="2.05" stroke-miterlimit="10"/>
<path d="M146.676 180.534L145.508 174.639C145.451 174.36 145.289 174.156 145.143 174.02C144.857 173.767 144.595 173.662 144.309 173.555C143.813 173.378 143.223 173.253 142.496 173.135C140.331 172.788 136.971 172.576 133.218 172.574H43.7422C40.7353 172.576 38.0311 172.714 36.0284 172.945C35.0227 173.063 34.2007 173.198 33.5522 173.376C33.2237 173.467 32.9411 173.56 32.6527 173.723C32.5093 173.805 32.3572 173.907 32.2123 174.071C32.0689 174.23 31.934 174.485 31.9354 174.769L31.9527 174.959L33.1219 180.852C33.1778 181.131 33.3385 181.338 33.4862 181.473C33.7717 181.724 34.0343 181.829 34.3197 181.938C34.8147 182.114 35.4043 182.239 36.1331 182.357C38.2979 182.702 41.6577 182.916 45.4106 182.917H134.887C137.892 182.917 140.599 182.779 142.601 182.547C143.606 182.429 144.43 182.295 145.078 182.117C145.405 182.025 145.689 181.931 145.978 181.769C146.12 181.687 146.272 181.585 146.417 181.421C146.56 181.261 146.696 181.007 146.695 180.721L146.676 180.534Z" fill="black"/>
<path d="M134.886 180.995H45.4103C42.4479 180.997 39.7235 180.853 37.7682 180.633C36.7927 180.524 36.0036 180.39 35.5187 180.264C35.4197 180.239 35.3451 180.215 35.2749 180.19L34.285 175.191C34.47 175.142 34.7096 175.087 34.9879 175.038C36.7381 174.722 40.0162 174.492 43.7419 174.493H133.218C136.179 174.493 138.905 174.634 140.86 174.856C141.836 174.966 142.625 175.099 143.108 175.225C143.207 175.249 143.283 175.275 143.35 175.297L144.343 180.298C144.158 180.347 143.919 180.402 143.64 180.451C141.89 180.768 138.612 180.998 134.886 180.995Z" fill="#D5DEDD"/>
<path d="M121.063 167.212L108.63 121.246C107.821 118.272 105.976 115.63 103.642 113.704C101.307 111.782 98.4604 110.554 95.5726 110.548H19.3982C17.0139 110.544 14.9308 111.422 13.4919 112.93C12.0473 114.435 11.2582 116.528 11.2611 118.841C11.2611 119.806 11.396 120.812 11.6743 121.839L24.1051 167.803C24.9128 170.777 26.7591 173.419 29.0946 175.346C31.4287 177.268 34.2764 178.497 37.1643 178.501H113.337C115.722 178.506 117.805 177.627 119.243 176.118C120.688 174.614 121.477 172.521 121.474 170.209C121.474 169.243 121.339 168.239 121.063 167.212Z" fill="black"/>
<path d="M117.618 174.554C116.612 175.596 115.188 176.236 113.339 176.241H37.1642C34.9348 176.247 32.5276 175.255 30.5249 173.601C28.5207 171.952 26.9398 169.662 26.2813 167.212L13.8505 121.246C13.621 120.401 13.5162 119.593 13.5162 118.84C13.5191 117.03 14.1173 115.542 15.1187 114.496C16.1243 113.453 17.5475 112.812 19.3967 112.807H95.5725C97.8019 112.802 100.206 113.793 102.21 115.447C104.215 117.096 105.795 119.388 106.455 121.837L118.886 167.803C119.114 168.648 119.22 169.455 119.22 170.209C119.218 172.018 118.619 173.506 117.618 174.554Z" fill="#FEFEFE"/>
<path d="M112.877 174.644C111.924 175.63 110.576 176.236 108.824 176.24H36.6936C34.5833 176.246 32.3038 175.308 30.4072 173.744C28.5078 172.185 27.0115 170.02 26.3875 167.704L14.618 124.248C14.3999 123.449 14.301 122.685 14.301 121.972C14.3038 120.262 14.8705 118.854 15.8188 117.865C16.7713 116.881 18.1184 116.274 19.8701 116.27H92.0004C94.1121 116.265 96.3888 117.203 98.2853 118.765C100.183 120.325 101.68 122.49 102.305 124.807L114.076 168.263C114.291 169.061 114.393 169.824 114.393 170.537C114.39 172.248 113.825 173.657 112.877 174.644Z" fill="#D5DEDD"/>
</g>
</g>
<defs>
<clipPath id="clip0_330_191">
<rect width="359" height="338" fill="white"/>
</clipPath>
</defs>
</svg>
